<?xml version="1.0" encoding="UTF-8"?>
<svg id="Layer_2" data-name="Layer 2" xmlns="http://www.w3.org/2000/svg" viewBox="0 0 1001 102">
  <g id="Layer_1-2" data-name="Layer 1">
    <g>
      <path class="cls-1" d="m98.65,94.36h-18.4l-8.74-21.27h-37.83l-8.74,21.27H6.53L42.87,7.19h19.44l36.34,87.17Zm-34.38-38.52l-11.15-27.71-12.08,27.71h23.23Z"/>
      <path class="cls-1" d="m108.88,7.19h41.51c4.37,0,8.38,1.05,12.02,3.16,3.64,2.11,6.54,4.96,8.68,8.57,2.15,3.6,3.22,7.59,3.22,11.96,0,7.13-2.95,13.07-8.85,17.83,3.29,2.15,5.92,5.12,7.88,8.91s2.93,7.95,2.93,12.48-1.07,8.51-3.22,12.19c-2.15,3.68-5.04,6.61-8.68,8.8-3.64,2.19-7.65,3.28-12.02,3.28h-43.47V7.19Zm17.71,33.81h21.62c2.3-.08,4.21-.84,5.75-2.3,1.53-1.46,2.3-3.33,2.3-5.64s-.83-4.24-2.47-5.81c-1.65-1.57-3.62-2.36-5.92-2.36h-21.28v16.1Zm0,34.5h22.54c2.3,0,4.25-.79,5.87-2.36,1.61-1.57,2.42-3.55,2.42-5.92s-.81-4.52-2.42-6.21c-1.61-1.69-3.57-2.53-5.87-2.53h-22.54v17.02Z"/>
      <path class="cls-1" d="m190.07,28.41c3.75-6.79,8.99-12.17,15.7-16.16,6.71-3.99,14.32-5.98,22.83-5.98s16.12,1.99,22.83,5.98c6.71,3.99,11.94,9.37,15.7,16.16,3.75,6.78,5.63,14.24,5.63,22.37s-1.88,15.58-5.63,22.37c-3.76,6.79-8.99,12.17-15.7,16.16-6.71,3.99-14.32,5.98-22.83,5.98s-16.12-1.99-22.83-5.98c-6.71-3.99-11.94-9.37-15.7-16.16-3.76-6.79-5.64-14.24-5.64-22.37s1.88-15.58,5.64-22.37Zm52.67,45.83c4.06-2.38,7.19-5.62,9.37-9.72,2.19-4.1,3.28-8.68,3.28-13.74s-1.09-9.52-3.28-13.63c-2.18-4.1-5.31-7.34-9.37-9.72-4.06-2.38-8.78-3.56-14.15-3.56s-10.08,1.19-14.14,3.56c-4.06,2.38-7.19,5.62-9.37,9.72-2.18,4.1-3.28,8.65-3.28,13.63s1.09,9.64,3.28,13.74c2.19,4.1,5.31,7.34,9.37,9.72,4.06,2.38,8.78,3.56,14.14,3.56s10.08-1.19,14.15-3.56Z"/>
      <path class="cls-1" d="m319.33,77.22c5.52,0,9.97-1.71,13.34-5.12,3.37-3.41,5.06-7.8,5.06-13.17V7.19h17.59v51.98c0,6.44-1.65,12.42-4.95,17.94-3.3,5.52-7.7,9.91-13.22,13.17-5.52,3.26-11.46,4.89-17.83,4.89s-12.3-1.63-17.83-4.89c-5.52-3.26-9.93-7.65-13.22-13.17-3.3-5.52-4.95-11.5-4.95-17.94V7.19h17.6v51.75c0,5.37,1.69,9.76,5.06,13.17,3.37,3.41,7.82,5.12,13.34,5.12Z"/>
      <path class="cls-1" d="m429.61,24.44h-22.66v69.92h-17.71V24.44h-23.11V7.19h63.48v17.25Z"/>
      <path class="cls-1" d="m565.89,94.36h-17.71V31.91l-23.58,43.12h-16.21l-22.54-43.12v62.44h-17.59V7.19h25.64l23.11,42.9,23-42.9h25.88v87.17Z"/>
      <path class="cls-1" d="m642.47,24.44h-44.5v16.45h40.71v17.36h-40.71v18.75h44.5v17.36h-61.75V7.19h61.75v17.25Z"/>
    </g>
  </g>
</svg>