<?xml version="1.0" encoding="UTF-8"?>
<svg id="Layer_2" data-name="Layer 2" xmlns="http://www.w3.org/2000/svg" viewBox="0 0 1001 102">
  <g id="Layer_1-2" data-name="Layer 1">
    <g>
      <path class="cls-1" d="m98.65,94.36h-18.4l-8.74-21.27h-37.83l-8.74,21.27H6.53L42.87,7.19h19.44l36.34,87.17Zm-34.38-38.52l-11.15-27.71-12.08,27.71h23.23Z"/>
      <path class="cls-1" d="m193.18,94.36h-24.5l-42.32-63.71v63.71h-17.71V7.19h23.46l43.47,63.6V7.19h17.59v87.17Z"/>
      <path class="cls-1" d="m225.03,7.19v87.17h-17.48V7.19h17.48Z"/>
      <path class="cls-1" d="m337.27,94.36h-17.71V31.91l-23.58,43.12h-16.21l-22.54-43.12v62.44h-17.59V7.19h25.64l23.12,42.9,23-42.9h25.88v87.17Z"/>
      <path class="cls-1" d="m441.23,94.36h-18.4l-8.74-21.27h-37.83l-8.74,21.27h-18.4L385.45,7.19h19.44l36.34,87.17Zm-34.39-38.52l-11.15-27.71-12.08,27.71h23.23Z"/>
      <path class="cls-1" d="m503.45,24.44h-22.66v69.92h-17.71V24.44h-23.11V7.19h63.48v17.25Z"/>
      <path class="cls-1" d="m533.23,7.19v87.17h-17.48V7.19h17.48Z"/>
      <path class="cls-1" d="m550.48,28.41c3.75-6.79,8.99-12.17,15.7-16.16,6.71-3.99,14.32-5.98,22.83-5.98s16.12,1.99,22.83,5.98c6.71,3.99,11.94,9.37,15.7,16.16,3.75,6.78,5.63,14.24,5.63,22.37s-1.88,15.58-5.63,22.37c-3.76,6.79-8.99,12.17-15.7,16.16-6.71,3.99-14.32,5.98-22.83,5.98s-16.12-1.99-22.83-5.98c-6.71-3.99-11.94-9.37-15.7-16.16-3.76-6.79-5.64-14.24-5.64-22.37s1.88-15.58,5.64-22.37Zm52.67,45.83c4.06-2.38,7.19-5.62,9.37-9.72,2.19-4.1,3.28-8.68,3.28-13.74s-1.09-9.52-3.28-13.63c-2.18-4.1-5.31-7.34-9.37-9.72-4.06-2.38-8.78-3.56-14.15-3.56s-10.08,1.19-14.14,3.56c-4.06,2.38-7.19,5.62-9.37,9.72-2.18,4.1-3.28,8.65-3.28,13.63s1.09,9.64,3.28,13.74c2.19,4.1,5.31,7.34,9.37,9.72,4.06,2.38,8.78,3.56,14.14,3.56s10.08-1.19,14.15-3.56Z"/>
      <path class="cls-1" d="m726.66,94.36h-24.5l-42.32-63.71v63.71h-17.71V7.19h23.46l43.47,63.6V7.19h17.59v87.17Z"/>
    </g>
  </g>
</svg>