<?xml version="1.0" encoding="UTF-8"?>
<svg id="Layer_2" data-name="Layer 2" xmlns="http://www.w3.org/2000/svg" viewBox="0 0 1001 102">
  <g id="Layer_1-2" data-name="Layer 1">
    <g>
      <path class="cls-1" d="m8.6,7.19h29.32c7.82,0,15.07,1.96,21.74,5.87,6.67,3.91,11.96,9.2,15.87,15.87,3.91,6.67,5.87,13.95,5.87,21.85s-1.96,15.18-5.87,21.85-9.2,11.96-15.87,15.87-13.92,5.86-21.74,5.86H8.6V7.19Zm41.97,66.07c3.99-2.34,7.17-5.5,9.54-9.49,2.38-3.99,3.57-8.32,3.57-13s-1.19-9.01-3.57-12.99c-2.38-3.99-5.56-7.15-9.54-9.49-3.99-2.34-8.32-3.51-13-3.51h-11.38v51.98h11.38c4.68,0,9.01-1.17,13-3.51Z"/>
      <path class="cls-1" d="m150.86,24.44h-44.5v16.45h40.71v17.36h-40.71v18.75h44.5v17.36h-61.75V7.19h61.75v17.25Z"/>
      <path class="cls-1" d="m198.35,96.77c-7.21,0-14.45-1.99-21.74-5.98-4.14-2.38-7.51-5.17-10.12-8.4-2.61-3.22-4.37-6.09-5.29-8.62l16.1-5.98c.38,1.07,1.19,2.3,2.42,3.68,1.23,1.38,2.91,2.68,5.06,3.91,2.53,1.38,4.81,2.38,6.84,2.99,2.03.61,4.12.92,6.27.92,1.76,0,3.45-.15,5.06-.46,2.53-.54,4.91-1.3,7.13-2.3,2.3-1.15,3.87-2.57,4.71-4.25.54-.77.81-1.73.81-2.88,0-1.69-.58-3.14-1.73-4.37-.84-.84-2.55-1.73-5.12-2.65-2.57-.92-6.84-2.15-12.82-3.68l-6.33-1.61c-4.75-1.23-8.7-2.88-11.84-4.94-1.61-1.07-3.05-2.2-4.31-3.39-1.27-1.19-2.13-2.09-2.59-2.7-1.61-2.07-2.86-4.56-3.74-7.48-.88-2.91-1.32-5.86-1.32-8.85s.46-5.63,1.38-7.94c1.84-4.83,4.89-8.68,9.14-11.56s8.8-4.62,13.63-5.23c1.76-.23,3.68-.34,5.75-.34,8.51,0,16.14,1.92,22.89,5.75,3.75,1.99,6.78,4.25,9.08,6.78l-13.11,11.5c-.84-.92-2.26-1.88-4.25-2.88-4.52-2.53-9.35-3.79-14.49-3.79-.92,0-2.15.08-3.68.23-4.83.69-7.78,2.76-8.86,6.21-.23.54-.34,1.27-.34,2.19,0,1.61.5,3.07,1.5,4.37,1.07,1.38,2.15,2.34,3.22,2.88.61.38,1.44.73,2.47,1.04,1.04.31,2.32.69,3.85,1.15l5.98,1.61c7.36,1.99,12.98,3.87,16.85,5.64,3.87,1.76,6.92,3.6,9.14,5.52,2.07,1.84,3.72,4.12,4.95,6.84,1.23,2.72,1.84,5.69,1.84,8.91s-.69,6.67-2.07,9.89c-1.15,2.68-2.82,5.25-5,7.7-2.19,2.45-4.89,4.49-8.11,6.1-5.29,2.3-9.58,3.64-12.88,4.02-1.92.31-4.03.46-6.33.46Z"/>
      <path class="cls-1" d="m261.48,7.19v87.17h-17.48V7.19h17.48Z"/>
      <path class="cls-1" d="m360.39,48.59c0,2.45-.12,5.41-.34,8.85-1.3,11.88-5.71,21.16-13.23,27.83s-17.36,10.01-29.55,10.01c-9.12,0-17.02-1.96-23.69-5.87s-11.75-9.24-15.24-15.98c-3.49-6.75-5.23-14.3-5.23-22.66s1.74-15.89,5.23-22.6c3.49-6.71,8.57-12.02,15.24-15.93s14.57-5.86,23.69-5.86,17.35,2.03,23.75,6.09c6.4,4.06,11.02,9.01,13.86,14.83l-15.41,8.74c-1.84-3.37-4.68-6.23-8.51-8.57-3.83-2.34-8.43-3.51-13.8-3.51s-10.29,1.17-14.32,3.51c-4.02,2.34-7.11,5.54-9.26,9.6-2.15,4.06-3.22,8.62-3.22,13.69s1.07,9.64,3.22,13.74c2.15,4.1,5.23,7.32,9.26,9.66,4.03,2.34,8.8,3.51,14.32,3.51s10.14-1.13,14.55-3.39c4.41-2.26,7.46-6.46,9.14-12.59h-21.39v-16.91h40.71c.15,1.07.23,2.34.23,3.79Z"/>
      <path class="cls-1" d="m454.46,94.36h-24.5l-42.32-63.71v63.71h-17.71V7.19h23.46l43.47,63.6V7.19h17.59v87.17Z"/>
    </g>
  </g>
</svg>