<?xml version="1.0" encoding="UTF-8"?>
<svg id="Layer_2" data-name="Layer 2" xmlns="http://www.w3.org/2000/svg" viewBox="0 0 1001 102">
  <g id="Layer_1-2" data-name="Layer 1">
    <g>
      <path class="cls-1" d="m8.49,7.19h38.41c5.52,0,10.6,1.36,15.24,4.08,4.64,2.72,8.32,6.42,11.04,11.1,2.72,4.68,4.08,9.77,4.08,15.29s-1.36,10.5-4.08,15.18c-2.72,4.68-6.4,8.4-11.04,11.15-4.64,2.76-9.72,4.14-15.24,4.14h-21.04v26.22H8.49V7.19Zm47.67,39.27c2.42-2.49,3.62-5.42,3.62-8.8s-1.21-6.27-3.62-8.68-5.31-3.62-8.68-3.62h-21.62v24.84h21.62c3.37,0,6.27-1.25,8.68-3.74Z"/>
      <path class="cls-1" d="m86.46,7.19h41.29c4.98,0,9.52,1.27,13.63,3.79,4.1,2.53,7.36,6.06,9.78,10.58,2.42,4.52,3.62,9.66,3.62,15.41-.54,6.98-2.28,12.55-5.23,16.73-2.95,4.18-7,7.95-12.13,11.33l21.5,29.32h-21.5l-19.2-26.22h-14.95v26.22h-16.79V7.19Zm47.32,39.39c2.42-2.49,3.62-5.46,3.62-8.91s-1.21-6.27-3.62-8.68-5.31-3.62-8.68-3.62h-21.85v24.96h21.85c3.37,0,6.27-1.25,8.68-3.74Z"/>
      <path class="cls-1" d="m168.11,28.41c3.75-6.79,8.99-12.17,15.7-16.16,6.71-3.99,14.32-5.98,22.83-5.98s16.12,1.99,22.83,5.98c6.71,3.99,11.94,9.37,15.7,16.16,3.75,6.78,5.63,14.24,5.63,22.37s-1.88,15.58-5.63,22.37c-3.76,6.79-8.99,12.17-15.7,16.16-6.71,3.99-14.32,5.98-22.83,5.98s-16.12-1.99-22.83-5.98c-6.71-3.99-11.94-9.37-15.7-16.16-3.76-6.79-5.64-14.24-5.64-22.37s1.88-15.58,5.64-22.37Zm52.67,45.83c4.06-2.38,7.19-5.62,9.37-9.72,2.19-4.1,3.28-8.68,3.28-13.74s-1.09-9.52-3.28-13.63c-2.18-4.1-5.31-7.34-9.37-9.72-4.06-2.38-8.78-3.56-14.15-3.56s-10.08,1.19-14.14,3.56c-4.06,2.38-7.19,5.62-9.37,9.72-2.18,4.1-3.28,8.65-3.28,13.63s1.09,9.64,3.28,13.74c2.19,4.1,5.31,7.34,9.37,9.72,4.06,2.38,8.78,3.56,14.14,3.56s10.08-1.19,14.15-3.56Z"/>
      <path class="cls-1" d="m344.28,48.59c0,2.45-.12,5.41-.34,8.85-1.3,11.88-5.71,21.16-13.23,27.83s-17.36,10.01-29.55,10.01c-9.12,0-17.02-1.96-23.69-5.87s-11.75-9.24-15.24-15.98c-3.49-6.75-5.23-14.3-5.23-22.66s1.74-15.89,5.23-22.6c3.49-6.71,8.57-12.02,15.24-15.93s14.57-5.86,23.69-5.86,17.35,2.03,23.75,6.09c6.4,4.06,11.02,9.01,13.86,14.83l-15.41,8.74c-1.84-3.37-4.68-6.23-8.51-8.57-3.83-2.34-8.43-3.51-13.8-3.51s-10.29,1.17-14.32,3.51c-4.02,2.34-7.11,5.54-9.26,9.6-2.15,4.06-3.22,8.62-3.22,13.69s1.07,9.64,3.22,13.74c2.15,4.1,5.23,7.32,9.26,9.66,4.03,2.34,8.8,3.51,14.32,3.51s10.14-1.13,14.55-3.39c4.41-2.26,7.46-6.46,9.14-12.59h-21.39v-16.91h40.71c.15,1.07.23,2.34.23,3.79Z"/>
      <path class="cls-1" d="m354.17,7.19h41.28c4.98,0,9.53,1.27,13.63,3.79,4.1,2.53,7.36,6.06,9.78,10.58,2.42,4.52,3.62,9.66,3.62,15.41-.54,6.98-2.28,12.55-5.23,16.73-2.95,4.18-7,7.95-12.13,11.33l21.5,29.32h-21.5l-19.21-26.22h-14.95v26.22h-16.79V7.19Zm47.32,39.39c2.42-2.49,3.62-5.46,3.62-8.91s-1.21-6.27-3.62-8.68-5.31-3.62-8.68-3.62h-21.85v24.96h21.85c3.37,0,6.27-1.25,8.68-3.74Z"/>
      <path class="cls-1" d="m526.79,94.36h-18.4l-8.74-21.27h-37.83l-8.74,21.27h-18.4L471.01,7.19h19.44l36.34,87.17Zm-34.39-38.52l-11.15-27.71-12.08,27.71h23.23Z"/>
      <path class="cls-1" d="m634.66,94.36h-17.71V31.91l-23.58,43.12h-16.21l-22.54-43.12v62.44h-17.59V7.19h25.64l23.12,42.9,23-42.9h25.88v87.17Z"/>
      <path class="cls-1" d="m748.39,94.36h-17.71V31.91l-23.58,43.12h-16.21l-22.54-43.12v62.44h-17.59V7.19h25.64l23.12,42.9,23-42.9h25.88v87.17Z"/>
      <path class="cls-1" d="m780.94,7.19v87.17h-17.48V7.19h17.48Z"/>
      <path class="cls-1" d="m879.84,94.36h-24.5l-42.32-63.71v63.71h-17.71V7.19h23.46l43.47,63.6V7.19h17.59v87.17Z"/>
      <path class="cls-1" d="m978.39,48.59c0,2.45-.12,5.41-.34,8.85-1.3,11.88-5.71,21.16-13.23,27.83s-17.36,10.01-29.55,10.01c-9.12,0-17.02-1.96-23.69-5.87s-11.75-9.24-15.24-15.98c-3.49-6.75-5.23-14.3-5.23-22.66s1.74-15.89,5.23-22.6c3.49-6.71,8.57-12.02,15.24-15.93s14.57-5.86,23.69-5.86,17.35,2.03,23.75,6.09c6.4,4.06,11.02,9.01,13.86,14.83l-15.41,8.74c-1.84-3.37-4.68-6.23-8.51-8.57-3.83-2.34-8.43-3.51-13.8-3.51s-10.29,1.17-14.32,3.51c-4.02,2.34-7.11,5.54-9.26,9.6-2.15,4.06-3.22,8.62-3.22,13.69s1.07,9.64,3.22,13.74c2.15,4.1,5.23,7.32,9.26,9.66,4.03,2.34,8.8,3.51,14.32,3.51s10.14-1.13,14.55-3.39c4.41-2.26,7.46-6.46,9.14-12.59h-21.39v-16.91h40.71c.15,1.07.23,2.34.23,3.79Z"/>
    </g>
  </g>
</svg>