<?xml version="1.0" encoding="UTF-8"?>
<svg id="Layer_2" data-name="Layer 2" xmlns="http://www.w3.org/2000/svg" viewBox="0 0 1001 206.7">
  <g id="Layer_1-2" data-name="Layer 1">
    <g>
      <path class="cls-1" d="m69.67,24.44h-22.66v69.92h-17.71V24.44H6.19V7.19h63.48v17.25Z"/>
      <path class="cls-1" d="m154.42,94.36h-17.48v-36.11h-38.64v36.11h-17.48V7.19h17.48v33.81h38.64V7.19h17.48v87.17Z"/>
      <path class="cls-1" d="m258.03,94.36h-18.4l-8.74-21.28h-37.83l-8.74,21.28h-18.4L202.26,7.19h19.44l36.34,87.17Zm-34.39-38.53l-11.15-27.71-12.08,27.71h23.23Z"/>
      <path class="cls-1" d="m352.56,94.36h-24.5l-42.32-63.71v63.71h-17.71V7.19h23.46l43.47,63.6V7.19h17.59v87.17Z"/>
      <path class="cls-1" d="m412.82,44.91l34.73,49.45h-21.96l-24.96-35.88-15.18,17.25v18.63h-17.48V7.3h17.48v42.21l37.49-42.44h24.15l-34.27,37.83Z"/>
      <path class="cls-1" d="m536.1,60.32v34.04h-17.13v-34.04l-34.62-53.13h20.7l22.42,34.5,22.66-34.5h20.7l-34.73,53.13Z"/>
      <path class="cls-1" d="m573.36,28.41c3.75-6.79,8.99-12.17,15.7-16.16,6.71-3.99,14.32-5.98,22.83-5.98s16.12,1.99,22.83,5.98c6.71,3.99,11.94,9.37,15.7,16.16,3.75,6.78,5.63,14.24,5.63,22.37s-1.88,15.58-5.63,22.37c-3.76,6.79-8.99,12.17-15.7,16.16-6.71,3.99-14.32,5.98-22.83,5.98s-16.12-2-22.83-5.98c-6.71-3.99-11.94-9.37-15.7-16.16-3.76-6.79-5.64-14.24-5.64-22.37s1.88-15.58,5.64-22.37Zm52.67,45.83c4.06-2.38,7.19-5.62,9.37-9.72,2.19-4.1,3.28-8.68,3.28-13.74s-1.09-9.52-3.28-13.63c-2.18-4.1-5.31-7.34-9.37-9.72-4.06-2.38-8.78-3.56-14.15-3.56s-10.08,1.19-14.14,3.56c-4.06,2.38-7.19,5.62-9.37,9.72-2.18,4.1-3.28,8.65-3.28,13.63s1.09,9.64,3.28,13.74c2.19,4.1,5.31,7.34,9.37,9.72,4.06,2.38,8.78,3.56,14.14,3.56s10.08-1.19,14.15-3.56Z"/>
      <path class="cls-1" d="m702.62,77.22c5.52,0,9.97-1.71,13.34-5.12,3.37-3.41,5.06-7.8,5.06-13.17V7.19h17.59v51.98c0,6.44-1.65,12.42-4.95,17.94-3.3,5.52-7.7,9.91-13.22,13.17-5.52,3.26-11.46,4.89-17.83,4.89s-12.3-1.63-17.83-4.89c-5.52-3.26-9.93-7.65-13.22-13.17-3.3-5.52-4.95-11.5-4.95-17.94V7.19h17.6v51.75c0,5.37,1.69,9.76,5.06,13.17,3.37,3.41,7.82,5.12,13.34,5.12Z"/>
      <path class="cls-1" d="m68.98,134.44H25.74v17.48h36.22v17.59H25.74v34.85H8.37v-87.17h60.61v17.25Z"/>
      <path class="cls-1" d="m79.21,138.41c3.75-6.79,8.99-12.17,15.7-16.16,6.71-3.99,14.32-5.98,22.83-5.98s16.12,1.99,22.83,5.98c6.71,3.99,11.94,9.37,15.7,16.16,3.75,6.79,5.63,14.24,5.63,22.37s-1.88,15.58-5.63,22.37c-3.76,6.79-8.99,12.17-15.7,16.16-6.71,3.99-14.32,5.98-22.83,5.98s-16.12-2-22.83-5.98c-6.71-3.99-11.94-9.37-15.7-16.16-3.76-6.79-5.64-14.24-5.64-22.37s1.88-15.58,5.64-22.37Zm52.67,45.83c4.06-2.38,7.19-5.62,9.37-9.72,2.19-4.1,3.28-8.68,3.28-13.74s-1.09-9.53-3.28-13.63c-2.18-4.1-5.31-7.34-9.37-9.72-4.06-2.38-8.78-3.56-14.15-3.56s-10.08,1.19-14.14,3.56c-4.06,2.38-7.19,5.62-9.37,9.72-2.18,4.1-3.28,8.64-3.28,13.63s1.09,9.64,3.28,13.74c2.19,4.1,5.31,7.34,9.37,9.72,4.06,2.38,8.78,3.56,14.14,3.56s10.08-1.19,14.15-3.56Z"/>
      <path class="cls-1" d="m171.21,117.19h41.28c4.98,0,9.53,1.26,13.63,3.79,4.1,2.53,7.36,6.06,9.78,10.58,2.42,4.52,3.62,9.66,3.62,15.41-.54,6.98-2.28,12.56-5.23,16.73-2.95,4.18-7,7.95-12.13,11.33l21.5,29.33h-21.5l-19.21-26.22h-14.95v26.22h-16.79v-87.17Zm47.32,39.39c2.42-2.49,3.62-5.46,3.62-8.91s-1.21-6.27-3.62-8.68-5.31-3.62-8.68-3.62h-21.85v24.96h21.85c3.37,0,6.27-1.25,8.68-3.74Z"/>
      <path class="cls-1" d="m282.53,117.19h41.28c4.98,0,9.53,1.26,13.63,3.79,4.1,2.53,7.36,6.06,9.78,10.58,2.42,4.52,3.62,9.66,3.62,15.41-.54,6.98-2.28,12.56-5.23,16.73-2.95,4.18-7,7.95-12.13,11.33l21.5,29.33h-21.5l-19.21-26.22h-14.95v26.22h-16.79v-87.17Zm47.32,39.39c2.42-2.49,3.62-5.46,3.62-8.91s-1.21-6.27-3.62-8.68-5.31-3.62-8.68-3.62h-21.85v24.96h21.85c3.37,0,6.27-1.25,8.68-3.74Z"/>
      <path class="cls-1" d="m426.62,134.44h-44.5v16.44h40.71v17.37h-40.71v18.75h44.5v17.37h-61.75v-87.17h61.75v17.25Z"/>
      <path class="cls-1" d="m527.82,204.36h-18.4l-8.74-21.28h-37.83l-8.74,21.28h-18.4l36.34-87.17h19.44l36.34,87.17Zm-34.39-38.53l-11.15-27.71-12.08,27.71h23.23Z"/>
      <path class="cls-1" d="m538.17,117.19h29.32c7.82,0,15.07,1.96,21.74,5.86,6.67,3.91,11.96,9.2,15.87,15.87s5.87,13.96,5.87,21.85-1.96,15.18-5.87,21.85-9.2,11.96-15.87,15.87-13.92,5.87-21.74,5.87h-29.32v-87.17Zm41.97,66.07c3.99-2.34,7.17-5.5,9.54-9.49,2.38-3.99,3.57-8.32,3.57-13s-1.19-9.01-3.57-13c-2.38-3.99-5.56-7.15-9.54-9.49-3.99-2.34-8.32-3.51-13-3.51h-11.38v51.98h11.38c4.68,0,9.01-1.17,13-3.51Z"/>
      <path class="cls-1" d="m639.83,117.19v87.17h-17.48v-87.17h17.48Z"/>
      <path class="cls-1" d="m738.73,204.36h-24.5l-42.32-63.71v63.71h-17.71v-87.17h23.46l43.47,63.59v-63.59h17.59v87.17Z"/>
      <path class="cls-1" d="m837.29,158.59c0,2.46-.12,5.41-.34,8.86-1.3,11.88-5.71,21.16-13.23,27.83s-17.36,10-29.55,10c-9.12,0-17.02-1.96-23.69-5.87s-11.75-9.24-15.24-15.99c-3.49-6.75-5.23-14.3-5.23-22.65s1.74-15.89,5.23-22.6c3.49-6.71,8.57-12.02,15.24-15.93s14.57-5.87,23.69-5.87,17.35,2.03,23.75,6.1c6.4,4.06,11.02,9.01,13.86,14.83l-15.41,8.74c-1.84-3.37-4.68-6.23-8.51-8.57-3.83-2.34-8.43-3.51-13.8-3.51s-10.29,1.17-14.32,3.51c-4.02,2.34-7.11,5.54-9.26,9.6-2.15,4.06-3.22,8.62-3.22,13.69s1.07,9.64,3.22,13.74c2.15,4.1,5.23,7.32,9.26,9.66,4.03,2.34,8.8,3.51,14.32,3.51s10.14-1.13,14.55-3.39c4.41-2.26,7.46-6.46,9.14-12.59h-21.39v-16.91h40.71c.15,1.07.23,2.34.23,3.79Z"/>
      <path class="cls-1" d="m875.12,176.53h-17.02l-3.1-66.24h22.77l-2.64,66.24Zm-15.18,14.09c1.61-1.72,3.83-2.59,6.67-2.59s5.06.86,6.67,2.59c1.61,1.73,2.42,3.89,2.42,6.5s-.81,4.77-2.42,6.5c-1.61,1.73-3.83,2.59-6.67,2.59s-5.06-.86-6.67-2.59c-1.61-1.72-2.42-3.89-2.42-6.5s.8-4.77,2.42-6.5Z"/>
    </g>
  </g>
</svg>