<?xml version="1.0" encoding="UTF-8"?>
<svg id="Layer_1" data-name="Layer 1" xmlns="http://www.w3.org/2000/svg" viewBox="0 0 550 450">
    <mask id="mask">
    <path d="m71.19,40.81c1.42-2.35,3.37-4.19,5.87-5.51,2.5-1.32,5.28-1.98,8.35-1.98s5.86.66,8.35,1.98c2.5,1.32,4.45,3.16,5.87,5.51,1.42,2.35,2.12,5.02,2.12,7.99s-.71,5.64-2.12,7.99c-1.42,2.35-3.37,4.19-5.87,5.51-2.5,1.32-5.28,1.98-8.35,1.98s-5.86-.66-8.35-1.98c-2.5-1.32-4.45-3.16-5.87-5.51-1.42-2.35-2.12-5.02-2.12-7.99s.71-5.64,2.12-7.99Zm6.3,15.7c2.11,2.02,4.75,3.02,7.92,3.02s5.82-1.01,7.96-3.02c2.14-2.02,3.2-4.58,3.2-7.7,0-2.06-.49-3.91-1.48-5.54-.98-1.63-2.32-2.92-4-3.85-1.68-.94-3.58-1.4-5.69-1.4-3.17,0-5.81,1.02-7.92,3.06-2.11,2.04-3.17,4.62-3.17,7.74s1.06,5.69,3.17,7.7Zm.07,14.04h5.33v15.41h36.65v4.46h-41.98v-19.87Zm39.02-41.76v19.3h9.43v4.46h-9.43v22.75h-5.4V28.79h5.4Z"/>
  <path d="m139.85,32.68v25.99c5.71,0,10.6-.16,14.65-.47,4.06-.31,8.12-.9,12.2-1.76l.72,4.32c-4.37.91-8.69,1.54-12.96,1.87-4.27.34-9.36.5-15.26.5h-4.68v-30.46h5.33Zm6.55,38.56c3.74-2.09,8.88-3.13,15.41-3.13s11.58,1.04,15.3,3.13c3.72,2.09,5.58,5,5.58,8.75s-1.86,6.59-5.58,8.68c-3.72,2.09-8.82,3.13-15.3,3.13s-11.73-1.03-15.44-3.1c-3.72-2.06-5.58-4.97-5.58-8.71s1.87-6.66,5.62-8.75Zm3.96,14.26c2.78,1.32,6.6,1.98,11.45,1.98s8.59-.66,11.38-1.98c2.78-1.32,4.18-3.16,4.18-5.51s-1.39-4.2-4.18-5.54c-2.78-1.34-6.58-2.02-11.38-2.02s-8.72.67-11.48,2.02c-2.76,1.34-4.14,3.19-4.14,5.54s1.39,4.19,4.18,5.51Zm8.64-37.91h18v-6.84h-18v-4.32h18v-7.56h5.4v38.74h-5.4v-15.7h-18v-4.32Z"/>
  <rect x="188.89" y="58.53" width="90" height="1"/>
  <path d="m281.95,39.01h16.13v-9.43h5.47v9.43h15.7v4.46h-37.29v-4.46Zm5.65,16.81c1.32-2.18,3.14-3.89,5.47-5.11s4.93-1.84,7.81-1.84,5.54.61,7.85,1.84c2.3,1.22,4.12,2.93,5.44,5.11,1.32,2.18,1.98,4.67,1.98,7.45s-.66,5.27-1.98,7.45c-1.32,2.18-3.13,3.89-5.44,5.11-2.3,1.22-4.92,1.84-7.85,1.84s-5.48-.61-7.81-1.84c-2.33-1.22-4.15-2.93-5.47-5.11-1.32-2.18-1.98-4.67-1.98-7.45s.66-5.27,1.98-7.45Zm6.05,14.54c1.9,1.85,4.31,2.77,7.24,2.77s5.34-.92,7.24-2.77c1.89-1.85,2.84-4.21,2.84-7.09s-.95-5.26-2.84-7.13c-1.9-1.87-4.31-2.81-7.24-2.81s-5.34.94-7.24,2.81-2.84,4.25-2.84,7.13.95,5.25,2.84,7.09Zm37.04-41.51v26.06h10.44v4.54h-10.44v32.4h-5.4V28.86h5.4Z"/>
  <path d="m351.86,67.38c2.11-2.88,3.74-6.1,4.9-9.65,1.15-3.55,1.73-7.13,1.73-10.73v-12.1h5.18v11.95c0,5.14,1.2,10.1,3.6,14.9,2.4,4.8,5.62,8.42,9.65,10.87l-3.17,4.18c-2.93-1.73-5.47-4.19-7.63-7.38-2.16-3.19-3.82-6.76-4.97-10.69-1.15,4.27-2.88,8.11-5.18,11.52-2.3,3.41-4.99,6.05-8.06,7.92l-3.38-4.03c2.78-1.63,5.23-3.89,7.34-6.77Zm28.8-15.84v-21.24h5.04v58.32h-5.04v-32.54h-10.66v-4.54h10.66Zm12.82-22.68h5.18v63h-5.18V28.86Z"/>
  <path d="m422.35,79.19v-17.21c-2.69-1.39-4.79-3.2-6.3-5.44-1.51-2.23-2.27-4.74-2.27-7.52,0-3.22.97-6.05,2.92-8.5,1.94-2.45,4.64-4.33,8.1-5.65,3.46-1.32,7.39-1.98,11.81-1.98s8.35.66,11.81,1.98c3.46,1.32,6.16,3.2,8.1,5.65,1.94,2.45,2.92,5.28,2.92,8.5,0,2.74-.73,5.21-2.2,7.42-1.46,2.21-3.52,4.03-6.16,5.47v17.28h14.18v4.46h-57.1v-4.46h14.18Zm-1.08-23.98c1.49,1.78,3.56,3.16,6.23,4.14,2.66.98,5.7,1.48,9.11,1.48s6.45-.49,9.11-1.48c2.66-.98,4.75-2.36,6.26-4.14,1.51-1.78,2.27-3.84,2.27-6.19s-.76-4.42-2.27-6.19c-1.51-1.78-3.6-3.16-6.26-4.14-2.66-.98-5.7-1.48-9.11-1.48s-6.44.49-9.11,1.48c-2.66.98-4.74,2.36-6.23,4.14-1.49,1.78-2.23,3.84-2.23,6.19s.74,4.42,2.23,6.19Zm24.41,23.98v-15.19c-2.74.72-5.76,1.08-9.07,1.08s-6.19-.36-8.93-1.08v15.19h18Z"/>
  <path d="m481.97,74.15h-4.75l-.94-39.53h6.55l-.86,39.53Zm-4.82,6.8c.58-.6,1.39-.9,2.45-.9s1.8.31,2.38.94c.58.62.86,1.39.86,2.3,0,.96-.29,1.75-.86,2.38-.58.62-1.37.94-2.38.94s-1.87-.31-2.45-.94c-.58-.62-.87-1.42-.87-2.38s.29-1.74.87-2.34Z"/>
  <path d="m67.77,162.92h57.1v4.46h-57.1v-4.46Zm7.13,10.22h42.62v14.62h-37.08v6.98h39.24v4.25h-44.57v-15.34h37.08v-6.26h-37.3v-4.25Zm5.9-35.28v14.26h37.37v4.46h-42.62v-18.72h5.26Z"/>
  <rect x="132.89" y="167.7" width="101.5" height="1"/>
  <path d="m293.83,139.67v8.93h-34.99v15.41h35.42v8.93h-18v12.1h24.05v9.14h-59.26v-9.14h23.9v-12.1h-17.35v-33.26h46.22Z"/>
  <path d="m314.49,160.04c2.35-3.5,3.58-7.39,3.67-11.66h-12.02v-8.86h35.35v8.86h-11.88c.1,3.98,1.27,7.64,3.53,10.98,2.25,3.34,5.83,5.8,10.73,7.38l-5.47,8.78c-6.58-2.11-11.35-6.07-14.33-11.88-3.17,6.48-8.26,10.82-15.26,13.03l-5.62-8.93c5.18-1.63,8.95-4.2,11.3-7.7Zm.65,19.3h11.3v11.88h34.13v8.93h-45.43v-20.81Zm32.76-27.43v-16.27h11.3v47.59h-11.3v-22.32h-8.71v-9h8.71Z"/>
  <path d="m367.56,147.01h16.13v-9.43h5.47v9.43h15.7v4.46h-37.3v-4.46Zm5.65,16.81c1.32-2.18,3.14-3.89,5.47-5.11,2.33-1.22,4.93-1.84,7.81-1.84s5.54.61,7.85,1.84c2.3,1.22,4.12,2.93,5.44,5.11,1.32,2.18,1.98,4.67,1.98,7.45s-.66,5.27-1.98,7.45c-1.32,2.18-3.13,3.89-5.44,5.11-2.3,1.22-4.92,1.84-7.85,1.84s-5.48-.61-7.81-1.84c-2.33-1.22-4.15-2.93-5.47-5.11-1.32-2.18-1.98-4.67-1.98-7.45s.66-5.27,1.98-7.45Zm6.05,14.54c1.89,1.85,4.31,2.77,7.24,2.77s5.34-.92,7.24-2.77c1.9-1.85,2.84-4.21,2.84-7.09s-.95-5.26-2.84-7.13-4.31-2.81-7.24-2.81-5.34.94-7.24,2.81c-1.9,1.87-2.84,4.25-2.84,7.13s.95,5.25,2.84,7.09Zm37.04-41.51v26.06h10.44v4.54h-10.44v32.4h-5.4v-63h5.4Z"/>
  <path d="m430.85,169.04h57.1v4.46h-57.1v-4.46Zm7.42,10.87h5.33v13.97h38.09v4.46h-43.42v-18.43Zm5.69-40.75v16.85h37.37v4.39h-42.7v-21.24h5.33Z"/>
  <path d="m107.3,260.12h-27.07v10.94h22.68v11.02h-22.68v21.82h-10.87v-54.58h37.94v10.8Z"/>
  <path d="m147.05,276.54l20.88,27.36h-13.25l-14.47-18.86-14.33,18.86h-13.61l20.95-27.36-20.95-27.22h13.61l14.33,18.79,14.33-18.72,13.39-.07-20.88,27.22Z"/>
  <rect x="171.89" y="276.86" width="62.5" height="1"/>
  <path d="m244.8,249.18h31.97v9h-20.81v26.57c5.86-.05,10.58-.19,14.18-.43,3.6-.24,7.1-.7,10.51-1.37l.94,9.22c-3.84.82-7.92,1.33-12.24,1.55-4.32.22-10.56.32-18.72.32h-5.83v-44.86Zm50.97-5.62v65.81h-11.3v-65.81h11.3Z"/>
  <path d="m341.28,249.61v9.29h-12.17v1.15c0,5.47,1.24,10.64,3.71,15.52,2.47,4.87,6.35,8.51,11.63,10.91l-6.12,8.86c-3.46-1.54-6.4-3.68-8.82-6.44-2.42-2.76-4.38-5.99-5.87-9.68-1.44,4.08-3.41,7.66-5.9,10.73-2.5,3.07-5.54,5.42-9.14,7.06l-6.34-8.86c5.38-2.5,9.31-6.32,11.81-11.48,2.5-5.16,3.74-10.69,3.74-16.6v-1.15h-12.89v-9.29h36.36Zm3.17-5.98h11.3v24.19h8.86v9.22h-8.86v32.11h-11.3v-65.52Z"/>
  <path d="m370.62,259.01c1.51-3.58,3.6-6.34,6.26-8.28s5.68-2.92,9.04-2.92,6.36.97,9,2.92,4.72,4.7,6.23,8.28c1.51,3.58,2.27,7.74,2.27,12.49s-.76,9-2.27,12.6c-1.51,3.6-3.59,6.37-6.23,8.32s-5.64,2.92-9,2.92-6.37-.97-9.04-2.92-4.75-4.72-6.26-8.32-2.27-7.8-2.27-12.6.76-8.92,2.27-12.49Zm10.4,22.64c1.2,2.26,2.83,3.38,4.9,3.38s3.7-1.13,4.9-3.38c1.2-2.26,1.8-5.64,1.8-10.15s-.6-7.81-1.8-10.04-2.83-3.35-4.9-3.35-3.7,1.12-4.9,3.35c-1.2,2.23-1.8,5.58-1.8,10.04s.6,7.9,1.8,10.15Zm40.61-38.16v65.81h-11.38v-65.81h11.38Z"/>
  <path d="m433.01,250.4h11.16v34.42c8.83-.24,16.78-1.08,23.83-2.52l1.15,9.22c-8.78,1.78-18.89,2.66-30.31,2.66h-5.83v-43.78Zm52.34-6.84v65.81h-11.23v-37.22h-16.27v-9h16.27v-19.58h11.23Z"/>
  <path d="m93.51,377.23c-5.16,5.88-12.68,10.07-22.57,12.56l-4.18-8.86c6.62-1.58,11.81-3.86,15.55-6.84,3.74-2.98,6-6.38,6.77-10.22h-18.43v-8.86h30.6c0,8.93-2.58,16.33-7.74,22.21Zm-15.95,13.14h43.92v26.14h-43.92v-26.14Zm32.83,17.35v-8.57h-21.74v8.57h21.74Zm-.22-56.16h11.3v36.22h-11.3v-36.22Z"/>
  <path d="m140.21,383.32c2.45-5.47,3.67-11.71,3.67-18.72v-8.35h11.3v8.35c0,15.5,4.94,25.42,14.83,29.74l-6.7,8.93c-6.43-3.07-11.04-8.38-13.82-15.91-2.98,8.11-7.75,13.75-14.33,16.92l-6.98-9c5.57-2.5,9.58-6.48,12.02-11.95Zm33.7-12.17v-19.66h11.23v65.81h-11.23v-37.15h-11.16v-9h11.16Z"/>
  <path d="m192.69,382.74h59.26v8.86h-13.1v10.51h-11.23v-10.51h-3.74v10.44h-11.23v-10.44h-19.95v-8.86Zm42.01-28.48c3.62,1.13,6.43,2.74,8.42,4.82,1.99,2.09,2.99,4.52,2.99,7.31s-1,5.22-2.99,7.31c-1.99,2.09-4.8,3.7-8.42,4.82-3.62,1.13-7.79,1.69-12.49,1.69s-8.87-.56-12.49-1.69c-3.62-1.13-6.43-2.74-8.42-4.82-1.99-2.09-2.99-4.52-2.99-7.31s1-5.22,2.99-7.31c1.99-2.09,4.8-3.7,8.42-4.82,3.62-1.13,7.79-1.69,12.49-1.69s8.87.57,12.49,1.69Zm-35.68,42.23h11.23v10.73h36.07v8.93h-47.3v-19.66Zm14.51-26.35c2.04.82,4.93,1.22,8.68,1.22s6.64-.41,8.68-1.22c2.04-.82,3.06-2.06,3.06-3.74,0-3.31-3.91-4.97-11.74-4.97s-11.74,1.66-11.74,4.97c0,1.68,1.02,2.93,3.06,3.74Z"/>
  <rect x="260.39" y="386.03" width="40" height="1"/>
  <path d="m308.52,362.83c1.39-2.18,3.33-3.88,5.83-5.08,2.5-1.2,5.3-1.8,8.42-1.8s5.93.6,8.42,1.8c2.5,1.2,4.44,2.89,5.83,5.08,1.39,2.19,2.09,4.69,2.09,7.52s-.7,5.34-2.09,7.52c-1.39,2.18-3.34,3.89-5.83,5.11-2.5,1.22-5.3,1.84-8.42,1.84s-5.93-.61-8.42-1.84c-2.5-1.22-4.44-2.93-5.83-5.11-1.39-2.18-2.09-4.69-2.09-7.52s.7-5.34,2.09-7.52Zm6.3,14.69c2.09,1.85,4.74,2.77,7.96,2.77s5.87-.92,7.96-2.77c2.09-1.85,3.13-4.24,3.13-7.16s-1.04-5.32-3.13-7.16c-2.09-1.85-4.74-2.77-7.96-2.77s-5.87.92-7.96,2.77c-2.09,1.85-3.13,4.24-3.13,7.16s1.04,5.32,3.13,7.16Zm1.26,12.35h5.33v7.78h29.74v-7.78h5.33v25.13h-40.39v-25.13Zm35.06,20.74v-8.64h-29.74v8.64h29.74Zm5.33-57.74v33.77h-5.4v-33.77h5.4Z"/>
  <path d="m371.95,359.05h5.4v35.78c10.66,0,20.64-.98,29.95-2.95l.72,4.61c-9.94,2.02-20.23,3.02-30.89,3.02h-5.18v-40.46Zm47.38-6.19v63h-5.33v-63h5.33Z"/>
  <path d="m433.66,359.05h29.23v4.39h-23.9v32.11c6.24,0,11.51-.14,15.8-.43,4.3-.29,8.63-.86,13-1.73l.65,4.61c-4.61.86-9.13,1.44-13.57,1.73s-9.88.43-16.31.43h-4.9v-41.11Zm45.58-6.26v25.06h10.44v4.54h-10.44v33.55h-5.4v-63.14h5.4Z"/>
</mask>
</svg>